<?xml version="1.0" standalone="no"?>
<!DOCTYPE svg PUBLIC "-//W3C//DTD SVG 20010904//EN"
 "http://www.w3.org/TR/2001/REC-SVG-20010904/DTD/svg10.dtd">
<svg version="1.0" xmlns="http://www.w3.org/2000/svg"
 width="80.000000pt" height="80.000000pt" viewBox="0 0 300.000000 300.000000"
 preserveAspectRatio="xMidYMid meet">
<metadata>
Created by potrace 1.10, written by Peter Selinger 2001-2011
</metadata>
<g transform="translate(0.000000,300.000000) scale(0.100000,-0.100000)"
fill="#000000" stroke="none">
<path d="M2070 1976 c-19 -7 -80 -35 -135 -63 l-99 -50 62 -5 c43 -3 71 -11
92 -27 l31 -22 89 82 c49 45 87 85 84 90 -8 13 -84 10 -124 -5z m0 -71 c-33
-35 -79 -45 -82 -20 -1 13 71 55 96 55 17 0 15 -6 -14 -35z"/>
<path d="M801 1870 c-15 -9 10 -82 86 -248 l33 -74 -78 -84 c-42 -47 -79 -89
-81 -95 -5 -17 34 -2 145 56 l102 52 118 -25 c66 -14 121 -27 124 -29 2 -2
-88 -96 -200 -208 -170 -170 -201 -205 -180 -205 58 0 138 33 279 114 l150 86
95 0 c87 0 96 2 110 22 20 28 20 62 1 78 -22 18 -19 25 26 55 38 25 47 26 105
20 34 -3 125 -6 202 -6 153 0 222 16 288 66 77 59 79 101 6 172 l-44 43 -24
-25 c-33 -35 -84 -55 -142 -55 -52 0 -79 17 -69 44 3 8 30 21 59 30 30 8 65
27 78 41 25 26 25 27 5 42 -61 46 -129 53 -300 28 -109 -15 -303 -54 -430 -87
-133 -33 -186 -39 -210 -24 -11 7 -53 52 -94 99 -78 89 -136 132 -160 117z
m145 -156 c74 -82 106 -104 155 -104 18 0 98 16 178 35 385 91 661 121 661 71
0 -7 -20 -21 -45 -31 -57 -21 -82 -56 -67 -90 29 -63 117 -71 213 -21 l52 27
24 -22 c27 -27 30 -69 5 -92 -10 -9 -44 -28 -77 -43 -52 -24 -73 -28 -174 -30
-64 -1 -156 2 -206 6 -99 9 -135 -2 -184 -54 -23 -25 -24 -29 -12 -63 19 -52
0 -63 -107 -63 l-83 0 -114 -65 c-62 -36 -130 -72 -150 -81 -35 -14 -36 -14
-26 5 6 10 14 21 18 23 5 2 65 62 136 135 165 171 167 184 25 221 -125 33
-161 36 -202 17 -45 -22 -52 -16 -29 23 17 30 17 31 -24 134 -23 57 -45 111
-49 121 -13 36 16 15 82 -59z"/>
<path d="M1192 1753 c-29 -20 -51 -38 -49 -40 12 -11 104 13 124 33 55 55 2
59 -75 7z"/>
</g>
</svg>
