 <svg  version="1.0" xmlns="http://www.w3.org/2000/svg"  width="60" height="60" viewBox="0 0 300.000000 225.000000"  preserveAspectRatio="xMidYMid meet">  <g transform="translate(0.000000,225.000000) scale(0.100000,-0.100000)" fill="#c0d4e3" stroke="none"> <path d="M1460 2068 c-41 -67 -50 -122 -50 -312 0 -100 -3 -191 -6 -204 -5 -16 -28 -34 -75 -58 -38 -18 -71 -34 -74 -34 -3 0 -5 22 -5 50 0 38 -4 52 -19 60 -26 14 -44 13 -66 -4 -17 -12 -19 -25 -17 -89 l3 -74 -253 -132 c-139 -73 -259 -140 -265 -149 -14 -17 -18 -62 -5 -62 4 0 61 18 127 39 74 25 124 36 130 31 7 -6 17 -3 26 8 9 10 46 26 83 36 58 16 69 17 77 5 7 -11 10 -9 15 8 4 15 19 24 49 32 69 17 100 14 113 -11 l11 -23 0 23 c1 22 4 23 74 20 l72 -3 2 -207 c2 -127 8 -231 17 -272 10 -49 11 -69 2 -80 -6 -7 -64 -48 -128 -90 -99 -64 -118 -80 -118 -101 0 -32 5 -32 150 5 65 16 121 30 124 30 2 0 10 -25 17 -55 19 -86 41 -85 54 1 3 24 10 46 14 49 5 2 63 -9 130 -25 148 -36 151 -36 151 -6 0 21 -19 37 -106 93 -59 37 -118 77 -131 89 l-25 20 16 72 c12 53 16 123 16 276 l0 206 70 0 c64 0 70 -2 70 -21 0 -12 5 -19 13 -16 6 2 11 12 11 21 -3 34 144 9 154 -26 5 -21 22 -24 22 -4 0 11 16 9 77 -10 42 -14 81 -28 87 -31 5 -4 22 -8 36 -10 14 -1 76 -20 138 -41 91 -31 112 -35 111 -23 -3 55 -11 60 -269 196 l-255 133 -5 84 -5 83 -45 0 -45 0 -3 -52 c-2 -29 -5 -53 -8 -53 -3 0 -35 14 -70 31 -43 21 -69 40 -75 56 -5 13 -9 105 -9 203 0 149 -3 188 -20 241 -35 113 -72 139 -110 77z m67 -65 c13 -30 18 -85 22 -248 7 -247 8 -249 106 -297 78 -39 114 -33 130 20 13 46 25 40 25 -13 0 -78 16 -94 157 -170 174 -92 233 -126 233 -131 0 -7 -45 4 -145 36 -49 16 -101 31 -115 33 -14 3 -43 12 -65 20 -26 10 -79 15 -156 16 -112 1 -117 0 -140 -25 -23 -25 -24 -31 -30 -247 -4 -122 -11 -241 -16 -265 -15 -62 6 -96 95 -156 40 -27 71 -51 69 -53 -2 -2 -36 2 -76 9 -63 11 -75 10 -100 -5 -25 -15 -30 -15 -41 -2 -15 17 -69 19 -123 4 -67 -18 -63 -4 13 48 100 67 107 81 91 185 -7 46 -13 167 -14 270 -2 182 -3 187 -26 212 -23 25 -28 26 -140 25 -86 0 -132 -5 -176 -19 -144 -46 -252 -79 -280 -84 -29 -6 -29 -6 -10 10 11 8 88 51 172 95 181 95 203 117 203 196 0 60 8 63 25 10 17 -53 53 -58 130 -18 100 52 99 50 105 301 5 179 8 220 23 248 23 42 34 40 54 -5z"/> </g> </svg> 