 <svg  version="1.0" xmlns="http://www.w3.org/2000/svg"  width="30.000000pt" height="30.000000pt" viewBox="0 0 300.000000 300.000000"  preserveAspectRatio="xMidYMid meet">  <g transform="translate(0.000000,300.000000) scale(0.100000,-0.100000)" fill="#c0d4e3" stroke="none"> <path d="M1390 2844 c-143 -38 -257 -154 -294 -299 -13 -46 -16 -117 -16 -322 l0 -262 -447 -224 c-318 -159 -453 -231 -467 -251 -19 -25 -21 -44 -24 -244 -2 -137 1 -231 7 -254 14 -44 59 -85 105 -93 22 -5 157 18 416 70 210 42 389 79 396 82 11 4 14 -10 14 -69 l0 -73 -81 -80 c-45 -44 -87 -94 -95 -112 -11 -24 -14 -85 -14 -245 0 -233 6 -260 61 -301 56 -41 87 -35 327 62 l222 89 223 -89 c239 -97 270 -103 326 -62 55 41 61 68 61 301 0 160 -3 221 -14 245 -8 18 -50 68 -95 112 l-81 80 0 73 c0 65 2 73 18 68 9 -3 191 -39 404 -82 243 -48 396 -74 413 -70 14 4 43 22 63 41 l37 33 3 239 c3 235 3 239 -20 273 -20 30 -84 66 -470 260 l-447 224 -3 291 -3 291 -38 76 c-90 184 -290 275 -487 222z m257 -55 c76 -29 162 -111 199 -191 l29 -63 5 -286 c5 -269 6 -288 25 -309 11 -12 211 -118 445 -235 234 -117 434 -223 445 -235 19 -20 20 -38 23 -245 l3 -222 -25 -31 c-14 -16 -37 -33 -51 -36 -15 -4 -177 24 -401 69 -206 41 -385 75 -396 75 -44 0 -58 -27 -58 -111 0 -75 1 -79 39 -126 21 -26 55 -64 76 -83 63 -60 65 -67 65 -293 0 -196 -1 -205 -23 -238 -43 -63 -59 -62 -301 35 -119 47 -230 86 -246 86 -15 0 -124 -38 -242 -85 -232 -93 -254 -97 -299 -49 -24 25 -24 30 -27 232 -2 113 0 217 3 230 3 14 42 62 85 107 89 93 100 113 100 189 0 61 -27 106 -63 106 -12 0 -179 -32 -372 -71 -412 -83 -434 -85 -472 -46 l-28 27 -3 218 c-2 198 -1 220 16 247 16 24 100 70 443 241 246 123 435 223 449 239 l25 27 5 286 5 287 32 66 c88 180 297 260 490 188z"/> <path d="M1435 2602 c-49 -23 -79 -55 -100 -104 -12 -31 -15 -89 -15 -337 0 -326 -2 -338 -54 -370 -17 -11 -217 -112 -443 -225 -448 -224 -443 -221 -443 -304 0 -50 31 -92 68 -92 15 0 195 34 401 75 499 99 471 112 471 -215 0 -229 0 -227 -80 -305 -83 -79 -110 -122 -110 -170 0 -48 30 -95 61 -95 10 0 76 23 146 51 71 28 144 51 163 51 19 0 93 -23 164 -51 71 -28 137 -51 147 -51 26 0 59 48 59 86 0 54 -17 83 -96 164 -45 47 -78 90 -84 111 -6 19 -10 116 -10 217 0 212 8 244 65 268 34 14 53 11 413 -61 208 -41 388 -75 400 -75 12 0 31 9 42 20 25 25 28 114 4 148 -9 14 -187 109 -452 241 -289 145 -442 227 -452 243 -12 19 -16 82 -20 349 -5 324 -5 326 -29 361 -53 76 -141 105 -216 70z m118 -36 c18 -7 43 -26 57 -40 l25 -28 5 -331 c5 -346 6 -352 52 -393 12 -12 218 -119 456 -238 l432 -216 0 -61 c0 -48 -3 -60 -14 -56 -48 19 -784 158 -809 153 -45 -9 -83 -42 -101 -86 -23 -57 -23 -423 -1 -477 8 -19 51 -72 95 -117 80 -82 80 -83 80 -135 0 -39 -3 -52 -12 -48 -168 68 -301 117 -318 117 -17 0 -150 -49 -317 -117 -10 -4 -13 10 -13 49 l0 53 81 80 c45 44 87 94 95 112 20 46 20 439 0 487 -17 40 -58 74 -101 82 -21 4 -161 -20 -415 -71 -210 -42 -389 -79 -396 -82 -11 -4 -14 8 -14 56 l0 61 448 224 c342 171 453 231 468 253 17 26 19 54 24 360 5 315 6 333 26 360 23 32 78 63 112 63 12 0 37 -6 55 -14z"/> </g> </svg> 