<svg xmlns="http://www.w3.org/2000/svg" width="32" height="32" viewBox="0 0 24 24" fill="none">
<g opacity="0.5">
<path d="M19.4692 16.4339L20.7675 16.8396V15.4794V13.7397V13.1854L20.2975 12.8917L13.8087 8.83618V4.60623C13.8087 3.33197 12.7782 2.30145 11.5039 2.30145C10.2296 2.30145 9.19913 3.33197 9.19913 4.60623V8.83618L2.7103 12.8917L2.2403 13.1854V13.7397V15.4794V16.8396L3.53858 16.4339L9.19913 14.665V17.589L7.85942 18.5937L7.45942 18.8937V19.3937V20.6985V22.0242L8.73414 21.66L11.5039 20.8687L14.2737 21.66L15.5484 22.0242V20.6985V19.3937V18.8937L15.1484 18.5937L13.8087 17.589V14.665L19.4692 16.4339Z" fill="#888888"  stroke-width="2"/>
</g>
</svg>