<svg xmlns="http://www.w3.org/2000/svg" width="24" height="25" viewBox="0 0 24 25" fill="none">
  <g clip-path="url(#clip0_808_234)">
    <path d="M22.2691 0.570313H1.7309C0.774902 0.570313 0 1.34521 0 2.30121V22.8394C0 23.7954 0.774902 24.5703 1.7309 24.5703H12.8203V15.2891H9.70312V11.6562H12.8203V8.98273C12.8203 5.88239 14.7131 4.19489 17.4787 4.19489C18.8033 4.19489 19.9417 4.29358 20.2734 4.33771V7.57812H18.3664C16.8616 7.57812 16.5703 8.29315 16.5703 9.34253V11.6562H20.168L19.6992 15.2891H16.5703V24.5703H22.2691C23.2251 24.5703 24 23.7954 24 22.8394V2.30121C24 1.34521 23.2251 0.570312 22.2691 0.570312V0.570313Z" fill="#808080"/>
  </g>
  <defs>
    <clipPath id="clip0_808_234">
      <rect width="24" height="24" fill="white" transform="translate(0 0.570312)"/>
    </clipPath>
  </defs>
</svg>