<svg xmlns="http://www.w3.org/2000/svg" width="24" height="25" viewBox="0 0 24 25" fill="none">
  <path d="M23.0949 1.47671C22.4907 0.872354 21.7667 0.570312 20.9232 0.570312H3.07924C2.23545 0.570312 1.51162 0.872463 0.907265 1.47671C0.303018 2.08079 0.000976562 2.80473 0.000976562 3.64835V21.4921C0.000976562 22.3356 0.302963 23.0597 0.907265 23.6639C1.51162 24.2681 2.23561 24.5703 3.07924 24.5703H20.9229C21.7663 24.5703 22.4905 24.2681 23.0947 23.6639C23.6991 23.0597 24.0009 22.3356 24.0009 21.4921V3.64835C24.0008 2.80456 23.6991 2.08101 23.0949 1.47671ZM8.61843 9.21863C9.56106 8.30731 10.6939 7.85143 12.0168 7.85143C13.35 7.85143 14.488 8.30731 15.4308 9.21863C16.3737 10.1301 16.8448 11.2318 16.8448 12.5234C16.8448 13.8149 16.3737 14.9166 15.4308 15.8278C14.488 16.7395 13.3504 17.1953 12.0168 17.1953C10.694 17.1953 9.56122 16.7391 8.61843 15.8278C7.67558 14.9165 7.20422 13.8149 7.20422 12.5234C7.20422 11.2318 7.67558 10.1302 8.61843 9.21863ZM21.2825 20.8517C21.2825 21.1224 21.1885 21.3488 21.0012 21.5312C20.8133 21.7135 20.5897 21.8047 20.329 21.8047H3.62618C3.35539 21.8047 3.12866 21.7135 2.94652 21.5312C2.76412 21.3492 2.67299 21.1224 2.67299 20.8517V10.7264H4.87605C4.66781 11.3827 4.56367 12.0651 4.56367 12.7733C4.56367 14.7738 5.29275 16.4792 6.75107 17.8909C8.20956 19.3021 9.96473 20.0081 12.0168 20.0081C13.371 20.0081 14.6209 19.685 15.7671 19.0392C16.9129 18.393 17.8186 17.5157 18.4858 16.4062C19.1525 15.2967 19.4858 14.0857 19.4858 12.7734C19.4858 12.0652 19.3813 11.3829 19.1731 10.7264H21.2827V20.8518H21.2825V20.8517ZM21.2825 6.89824C21.2825 7.20034 21.1784 7.45559 20.9697 7.66388C20.7615 7.87234 20.5064 7.97643 20.2041 7.97643H17.4855C17.1836 7.97643 16.9281 7.87228 16.7199 7.66388C16.5116 7.45559 16.4075 7.20034 16.4075 6.89824V4.32035C16.4075 4.02866 16.5116 3.77609 16.7199 3.56249C16.9282 3.34899 17.1836 3.24211 17.4855 3.24211H20.2041C20.5064 3.24211 20.7615 3.34894 20.9697 3.56249C21.1783 3.77609 21.2825 4.02866 21.2825 4.32035V6.89824Z" fill="#808080"/>
</svg>