<svg xmlns="http://www.w3.org/2000/svg" width="24" height="21" viewBox="0 0 24 21" fill="none">
  <path d="M24 3.12881C23.1075 3.52031 22.1565 3.77981 21.165 3.90581C22.185 3.29681 22.9635 2.33981 23.3295 1.18631C22.3785 1.75331 21.3285 2.15381 20.2095 2.37731C19.3065 1.41581 18.0195 0.820312 16.6155 0.820312C13.8915 0.820312 11.6985 3.03131 11.6985 5.74181C11.6985 6.13181 11.7315 6.50681 11.8125 6.86381C7.722 6.66431 4.1025 4.70381 1.671 1.71731C1.2465 2.45381 0.9975 3.29681 0.9975 4.20431C0.9975 5.90831 1.875 7.41881 3.183 8.29331C2.3925 8.27831 1.617 8.04881 0.96 7.68731C0.96 7.70231 0.96 7.72181 0.96 7.74131C0.96 10.1323 2.6655 12.1183 4.902 12.5758C4.5015 12.6853 4.065 12.7378 3.612 12.7378C3.297 12.7378 2.979 12.7198 2.6805 12.6538C3.318 14.6023 5.127 16.0348 7.278 16.0813C5.604 17.3908 3.4785 18.1798 1.1775 18.1798C0.774 18.1798 0.387 18.1618 0 18.1123C2.1795 19.5178 4.7625 20.3203 7.548 20.3203C16.602 20.3203 21.552 12.8203 21.552 6.31931C21.552 6.10181 21.5445 5.89181 21.534 5.68331C22.5105 4.99031 23.331 4.12481 24 3.12881Z" fill="#808080"/>
</svg>