<svg xmlns="http://www.w3.org/2000/svg" width="24" height="17" viewBox="0 0 24 17" fill="none">
  <path d="M22.98 1.91031C22.329 0.752312 21.6225 0.539313 20.184 0.458313C18.747 0.360813 15.1335 0.320312 12.003 0.320312C8.8665 0.320312 5.2515 0.360813 3.816 0.456813C2.3805 0.539313 1.6725 0.750812 1.0155 1.91031C0.345 3.06681 0 5.05881 0 8.56581C0 8.56881 0 8.57031 0 8.57031C0 8.57331 0 8.57481 0 8.57481V8.57781C0 12.0698 0.345 14.0768 1.0155 15.2213C1.6725 16.3793 2.379 16.5893 3.8145 16.6868C5.2515 16.7708 8.8665 16.8203 12.003 16.8203C15.1335 16.8203 18.747 16.7708 20.1855 16.6883C21.624 16.5908 22.3305 16.3808 22.9815 15.2228C23.658 14.0783 24 12.0713 24 8.57931C24 8.57931 24 8.57481 24 8.57181C24 8.57181 24 8.56881 24 8.56731C24 5.05881 23.658 3.06681 22.98 1.91031ZM9 13.0703V4.07031L16.5 8.57031L9 13.0703Z" fill="#808080"/>
</svg>